<svg width="43" height="35" viewBox="0 0 43 35" fill="none" xmlns="http://www.w3.org/2000/svg">
<path id="&#244;&#128;&#163;&#137;" d="M0.884766 33.0257C0.884766 32.5909 1.04289 32.2153 1.35913 31.8991C1.67538 31.596 2.04433 31.4445 2.466 31.4445H40.5143C40.9492 31.4445 41.3247 31.596 41.641 31.8991C41.9572 32.2153 42.1153 32.5909 42.1153 33.0257C42.1153 33.4737 41.9572 33.8493 41.641 34.1523C41.3247 34.4554 40.9492 34.6069 40.5143 34.6069H2.466C2.04433 34.6069 1.67538 34.4554 1.35913 34.1523C1.04289 33.8493 0.884766 33.4737 0.884766 33.0257ZM2.466 26.938V10.592C2.466 10.0781 2.61753 9.6762 2.9206 9.38631C3.23685 9.08324 3.6651 8.93171 4.20535 8.93171H8.5142C9.04128 8.93171 9.45635 9.08324 9.75942 9.38631C10.0757 9.6762 10.2338 10.0781 10.2338 10.592V26.938C10.2338 27.4519 10.0757 27.8538 9.75942 28.1437C9.45635 28.4335 9.04128 28.5785 8.5142 28.5785H4.20535C3.6651 28.5785 3.23685 28.4335 2.9206 28.1437C2.61753 27.8538 2.466 27.4519 2.466 26.938ZM12.5463 26.938V2.03359C12.5463 1.51969 12.6979 1.1178 13.0009 0.827905C13.3172 0.538012 13.7454 0.393066 14.2857 0.393066H18.5945C19.1216 0.393066 19.5433 0.538012 19.8595 0.827905C20.1758 1.1178 20.3339 1.51969 20.3339 2.03359V26.938C20.3339 27.4519 20.1758 27.8538 19.8595 28.1437C19.5433 28.4335 19.1216 28.5785 18.5945 28.5785H14.2857C13.7454 28.5785 13.3172 28.4335 13.0009 28.1437C12.6979 27.8538 12.5463 27.4519 12.5463 26.938ZM22.6464 26.938V6.30291C22.6464 5.77584 22.798 5.36735 23.101 5.07746C23.4173 4.78757 23.839 4.64262 24.366 4.64262H28.6947C29.2217 4.64262 29.6368 4.78757 29.9399 5.07746C30.2561 5.36735 30.4142 5.77584 30.4142 6.30291V26.938C30.4142 27.4519 30.2561 27.8538 29.9399 28.1437C29.6368 28.4335 29.2217 28.5785 28.6947 28.5785H24.366C23.839 28.5785 23.4173 28.4335 23.101 28.1437C22.798 27.8538 22.6464 27.4519 22.6464 26.938ZM32.7268 26.938V14.7427C32.7268 14.2288 32.8783 13.8269 33.1814 13.537C33.4976 13.234 33.9259 13.0824 34.4661 13.0824H38.775C39.3021 13.0824 39.7237 13.234 40.04 13.537C40.3562 13.8269 40.5143 14.2288 40.5143 14.7427V26.938C40.5143 27.4519 40.3562 27.8538 40.04 28.1437C39.7237 28.4335 39.3021 28.5785 38.775 28.5785H34.4661C33.9259 28.5785 33.4976 28.4335 33.1814 28.1437C32.8783 27.8538 32.7268 27.4519 32.7268 26.938Z" fill="#44DA92"/>
</svg>
