<svg width="25" height="39" viewBox="0 0 25 39" fill="none" xmlns="http://www.w3.org/2000/svg">
<path id="&#244;&#128;&#137;&#158;" d="M2.38724 39C1.79377 39 1.33086 38.8061 0.998516 38.4182C0.666172 38.0303 0.5 37.4848 0.5 36.7818V5.21818C0.5 3.48485 0.921365 2.18182 1.76409 1.30909C2.60682 0.436364 3.86498 0 5.53858 0H19.4614C21.135 0 22.3932 0.436364 23.2359 1.30909C24.0786 2.18182 24.5 3.48485 24.5 5.21818V36.7818C24.5 37.4848 24.3338 38.0303 24.0015 38.4182C23.6691 38.8061 23.2062 39 22.6128 39C22.1736 39 21.7641 38.8485 21.3843 38.5455C21.0163 38.2424 20.4288 37.697 19.6217 36.9091L12.6602 29.9091C12.5534 29.7879 12.4466 29.7879 12.3398 29.9091L5.37834 36.9091C4.57122 37.7091 3.97774 38.2545 3.59792 38.5455C3.2181 38.8485 2.81454 39 2.38724 39Z" fill="#44DA92"/>
</svg>
