<svg width="100" height="101" viewBox="0 0 100 101" fill="none" xmlns="http://www.w3.org/2000/svg">
<path id="&#244;&#128;&#134;&#133;" d="M45.7113 68.5C44.4014 68.5 43.3099 68.0011 42.4366 67.0034L31.5352 54.3629C31.1549 53.9449 30.8873 53.5404 30.7324 53.1494C30.5775 52.7584 30.5 52.3539 30.5 51.936C30.5 50.9787 30.831 50.1899 31.493 49.5697C32.169 48.936 33.0141 48.6191 34.0282 48.6191C35.1549 48.6191 36.0915 49.0573 36.838 49.9337L45.6268 60.3494L62.8873 34.2393C63.3239 33.6056 63.7747 33.1607 64.2394 32.9045C64.7183 32.6348 65.3028 32.5 65.993 32.5C67.007 32.5 67.8451 32.8101 68.507 33.4303C69.169 34.0506 69.5 34.8326 69.5 35.7764C69.5 36.127 69.4366 36.491 69.3099 36.8685C69.1831 37.2461 68.9859 37.6371 68.7183 38.0416L49.0493 66.8618C48.2746 67.9539 47.162 68.5 45.7113 68.5Z" fill="#44DA92"/>
</svg>
