<svg width="24" height="24" viewBox="0 0 24 24" fill="none" xmlns="http://www.w3.org/2000/svg">
<rect width="24" height="24" rx="6" fill="#44DA92"/>
<path d="M10.4605 18.5C9.99025 18.5 9.59841 18.3198 9.28494 17.9596L5.37161 13.3949C5.2351 13.244 5.13904 13.0979 5.08342 12.9567C5.02781 12.8155 5 12.6695 5 12.5185C5 12.1728 5.11882 11.888 5.35645 11.664C5.59913 11.4352 5.90249 11.3208 6.26652 11.3208C6.671 11.3208 7.00722 11.479 7.27519 11.7955L10.4301 15.5567L16.6262 6.12809C16.783 5.89925 16.9447 5.73858 17.1116 5.64607C17.2835 5.54869 17.4933 5.5 17.7411 5.5C18.1051 5.5 18.4059 5.61199 18.6436 5.83596C18.8812 6.05993 19 6.34232 19 6.68315C19 6.80974 18.9772 6.9412 18.9317 7.07753C18.8862 7.21386 18.8155 7.35506 18.7194 7.50112L11.6587 17.9084C11.3806 18.3028 10.9812 18.5 10.4605 18.5Z" fill="#F2F2F7"/>
</svg>
