<svg width="11" height="20" viewBox="0 0 11 20" fill="none" xmlns="http://www.w3.org/2000/svg">
<path d="M0 10C0 10.2686 0.0966797 10.5049 0.300781 10.709L8.81934 19.0342C9.00195 19.2275 9.23828 19.3242 9.51758 19.3242C10.0762 19.3242 10.5059 18.9053 10.5059 18.3467C10.5059 18.0674 10.3877 17.8311 10.2158 17.6484L2.39551 10L10.2158 2.35156C10.3877 2.16895 10.5059 1.92188 10.5059 1.65332C10.5059 1.09473 10.0762 0.675781 9.51758 0.675781C9.23828 0.675781 9.00195 0.772461 8.81934 0.955078L0.300781 9.29102C0.0966797 9.48438 0 9.73145 0 10Z" fill="#44DA92"/>
</svg>
