<svg width="14" height="14" viewBox="0 0 14 14" fill="none" xmlns="http://www.w3.org/2000/svg">
<path id="&#244;&#128;&#134;&#133;" d="M5.46046 13.5C4.99025 13.5 4.59841 13.3198 4.28494 12.9596L0.371614 8.39494C0.235103 8.24401 0.139039 8.09794 0.0834236 7.95674C0.0278079 7.81554 0 7.66948 0 7.51854C0 7.17285 0.118815 6.88802 0.356446 6.66404C0.599133 6.43521 0.902492 6.32079 1.26652 6.32079C1.671 6.32079 2.00722 6.47903 2.27519 6.79551L5.43012 10.5567L11.6262 1.12809C11.783 0.899251 11.9447 0.738577 12.1116 0.646067C12.2835 0.548689 12.4933 0.5 12.7411 0.5C13.1051 0.5 13.4059 0.611985 13.6436 0.835955C13.8812 1.05993 14 1.34232 14 1.68315C14 1.80974 13.9772 1.9412 13.9317 2.07753C13.8862 2.21386 13.8155 2.35506 13.7194 2.50112L6.65872 12.9084C6.38064 13.3028 5.98122 13.5 5.46046 13.5Z" fill="#F2F2F7"/>
</svg>
