<svg width="12" height="12" viewBox="0 0 12 12" fill="none" xmlns="http://www.w3.org/2000/svg">
<path id="&#244;&#128;&#134;&#132;" d="M0.313641 11.6862C0.173482 11.5459 0.0792369 11.3815 0.0309062 11.1929C-0.0125914 10.9995 -0.0101749 10.8109 0.0381558 10.6271C0.0864865 10.4385 0.175898 10.2789 0.306391 10.1483L4.44591 5.99905L0.306391 1.85702C0.175898 1.72645 0.0864865 1.56686 0.0381558 1.37826C-0.00534181 1.18965 -0.00534181 1.00105 0.0381558 0.812446C0.0864865 0.623843 0.178315 0.459419 0.313641 0.319175C0.4538 0.174096 0.618124 0.0797938 0.806614 0.0362699C0.999936 -0.00725398 1.19084 -0.00725398 1.37933 0.0362699C1.56782 0.0797938 1.72973 0.16926 1.86506 0.304667L6.00458 4.43944L10.1369 0.304667C10.2722 0.16926 10.4341 0.0797938 10.6226 0.0362699C10.8111 -0.01209 10.9971 -0.01209 11.1808 0.0362699C11.3693 0.0846298 11.536 0.178932 11.681 0.319175C11.8212 0.459419 11.9154 0.623843 11.9638 0.812446C12.0121 1.00105 12.0121 1.18965 11.9638 1.37826C11.9203 1.56202 11.8308 1.72403 11.6955 1.86427L7.56324 5.99905L11.6955 10.1411C11.8308 10.2765 11.9203 10.4385 11.9638 10.6271C12.0072 10.8157 12.0048 11.0043 11.9565 11.1929C11.913 11.3815 11.8212 11.5459 11.681 11.6862C11.5409 11.8264 11.3765 11.9183 11.188 11.9618C10.9996 12.0102 10.8111 12.0126 10.6226 11.9691C10.4341 11.9256 10.2722 11.8337 10.1369 11.6934L6.00458 7.55865L1.86506 11.7007C1.72973 11.8312 1.56782 11.9183 1.37933 11.9618C1.19568 12.0102 1.00719 12.0102 0.813863 11.9618C0.625374 11.9183 0.458633 11.8264 0.313641 11.6862Z" fill="white"/>
</svg>
