<svg width="18" height="22" viewBox="0 0 18 22" fill="none" xmlns="http://www.w3.org/2000/svg">
<path id="&#244;&#128;&#137;&#128;" d="M5.20605 13.9443H12.8232C13.0251 13.9443 13.1911 13.8792 13.3213 13.749C13.458 13.6123 13.5264 13.4463 13.5264 13.251C13.5264 13.0557 13.458 12.8929 13.3213 12.7627C13.1911 12.626 13.0251 12.5576 12.8232 12.5576H5.20605C5.00423 12.5576 4.83496 12.626 4.69824 12.7627C4.56152 12.8929 4.49316 13.0557 4.49316 13.251C4.49316 13.4463 4.56152 13.6123 4.69824 13.749C4.83496 13.8792 5.00423 13.9443 5.20605 13.9443ZM5.20605 17.6064H12.8232C13.0251 17.6064 13.1911 17.5413 13.3213 17.4111C13.458 17.2744 13.5264 17.1117 13.5264 16.9229C13.5264 16.7275 13.458 16.5648 13.3213 16.4346C13.1911 16.2979 13.0251 16.2295 12.8232 16.2295H5.20605C5.00423 16.2295 4.83496 16.2979 4.69824 16.4346C4.56152 16.5648 4.49316 16.7275 4.49316 16.9229C4.49316 17.1117 4.56152 17.2744 4.69824 17.4111C4.83496 17.5413 5.00423 17.6064 5.20605 17.6064ZM3.7998 21.5713C2.75163 21.5713 1.96061 21.3011 1.42676 20.7607C0.892904 20.2204 0.625977 19.4229 0.625977 18.3682V3.63184C0.625977 2.58366 0.892904 1.78939 1.42676 1.24902C1.96061 0.702148 2.75163 0.428711 3.7998 0.428711H8.25293V7.81152C8.25293 9.02246 8.8584 9.62793 10.0693 9.62793H17.374V18.3682C17.374 19.4163 17.1071 20.2106 16.5732 20.751C16.0394 21.2979 15.2484 21.5713 14.2002 21.5713H3.7998ZM10.2451 8.20215C9.87402 8.20215 9.68848 8.0166 9.68848 7.64551V0.526367C9.90983 0.552409 10.1312 0.643555 10.3525 0.799805C10.5804 0.956055 10.8148 1.15788 11.0557 1.40527L16.3877 6.81543C16.6416 7.07585 16.8434 7.31673 16.9932 7.53809C17.1494 7.75944 17.2406 7.98079 17.2666 8.20215H10.2451Z" fill="#44DA92"/>
</svg>
