<svg width="24" height="20" viewBox="0 0 24 20" fill="none" xmlns="http://www.w3.org/2000/svg">
<rect width="24" height="20" fill="#E0E0E0"/>
<g id="Frame 140">
<g id="Property 1=Default">
<rect x="-56" y="-352" width="350" height="398" rx="16" fill="#F2F2F7"/>
<g id="Frame 151">
<g id="Frame 46">
<g id="Frame 145">
<path id="&#244;&#128;&#152;&#178;" d="M5.66406 17.9258C5.42969 17.9258 5.24479 17.8503 5.10938 17.6992C4.97917 17.5482 4.91406 17.3451 4.91406 17.0898V14.8164H3.66406C2.74219 14.8164 2.01042 14.5456 1.46875 14.0039C0.932292 13.457 0.664062 12.7148 0.664062 11.7773V3.95703C0.664062 3.00391 0.9375 2.26693 1.48438 1.74609C2.03646 1.22005 2.77865 0.957031 3.71094 0.957031H14.5625C15.1771 0.957031 15.7031 1.06641 16.1406 1.28516C16.5781 1.50391 16.9167 1.80859 17.1562 2.19922C17.401 2.58984 17.5469 3.04557 17.5938 3.56641L17.6016 3.80078H11.9922C11.1745 3.80078 10.4688 3.95964 9.875 4.27734C9.28125 4.58984 8.82292 5.04036 8.5 5.62891C8.18229 6.21745 8.02344 6.92057 8.02344 7.73828V13.2148C8.02344 13.8242 8.10417 14.2956 8.26562 14.6289C8.43229 14.957 8.6224 15.207 8.83594 15.3789L6.625 17.418C6.43229 17.5951 6.26302 17.7227 6.11719 17.8008C5.97656 17.8841 5.82552 17.9258 5.66406 17.9258ZM18.7734 19.043C18.6068 19.043 18.4531 19.0013 18.3125 18.918C18.1771 18.8398 18.0104 18.7122 17.8125 18.5352L14.9375 15.9414H12.2109C11.2474 15.9414 10.5 15.6706 9.96875 15.1289C9.4375 14.582 9.17188 13.8372 9.17188 12.8945V7.96484C9.17188 7.0013 9.4375 6.25911 9.96875 5.73828C10.5 5.21224 11.2474 4.94922 12.2109 4.94922H20.2812C21.2135 4.94922 21.9557 5.20964 22.5078 5.73047C23.0599 6.2513 23.3359 6.98828 23.3359 7.94141V12.8945C23.3359 13.832 23.0625 14.5742 22.5156 15.1211C21.974 15.668 21.2474 15.9414 20.3359 15.9414H19.5156V18.207C19.5156 18.457 19.4505 18.6576 19.3203 18.8086C19.1901 18.9648 19.0078 19.043 18.7734 19.043Z" fill="#44DA92"/>
</g>
</g>
</g>
</g>
<rect x="-75.5" y="-371.5" width="389" height="991" rx="4.5" stroke="#9747FF" stroke-dasharray="10 5"/>
</g>
</svg>
