<svg width="22" height="22" viewBox="0 0 22 22" fill="none" xmlns="http://www.w3.org/2000/svg">
<path id="&#244;&#128;&#165;&#146;" d="M10.9951 21.0879C9.61491 21.0879 8.31608 20.8242 7.09863 20.2969C5.88119 19.776 4.80697 19.0501 3.87598 18.1191C2.9515 17.1882 2.22559 16.1139 1.69824 14.8965C1.1709 13.679 0.907227 12.3802 0.907227 11C0.907227 9.61979 1.1709 8.32096 1.69824 7.10352C2.22559 5.88607 2.9515 4.8151 3.87598 3.89062C4.80697 2.95964 5.87793 2.23047 7.08887 1.70312C8.30631 1.17578 9.60514 0.912109 10.9854 0.912109C12.3721 0.912109 13.6742 1.17578 14.8916 1.70312C16.109 2.23047 17.1833 2.95964 18.1143 3.89062C19.0452 4.8151 19.7744 5.88607 20.3018 7.10352C20.8291 8.32096 21.0928 9.61979 21.0928 11C21.0928 12.3802 20.8291 13.679 20.3018 14.8965C19.7744 16.1139 19.0452 17.1882 18.1143 18.1191C17.1833 19.0501 16.109 19.776 14.8916 20.2969C13.6742 20.8242 12.3753 21.0879 10.9951 21.0879ZM10.5752 15.4629C10.751 15.4629 10.8975 15.4043 11.0146 15.2871C11.1383 15.1634 11.2002 15.0104 11.2002 14.8281V7.20117C11.2002 7.01888 11.1383 6.86589 11.0146 6.74219C10.8975 6.61198 10.7445 6.54688 10.5557 6.54688C10.432 6.54688 10.318 6.57617 10.2139 6.63477C10.1162 6.68685 9.99902 6.77799 9.8623 6.9082L7.74316 8.88086C7.72363 8.9069 7.68783 8.91992 7.63574 8.91992H6.21973C5.86816 8.91992 5.59473 9.02083 5.39941 9.22266C5.2041 9.41797 5.10645 9.70443 5.10645 10.082V11.9277C5.10645 12.3053 5.2041 12.5951 5.39941 12.7969C5.59473 12.9922 5.86816 13.0898 6.21973 13.0898H7.63574C7.68131 13.0898 7.71712 13.1061 7.74316 13.1387L9.8623 15.1309C9.986 15.2415 10.1032 15.3262 10.2139 15.3848C10.3245 15.4368 10.445 15.4629 10.5752 15.4629ZM12.8701 13.2656C12.9938 13.3633 13.1305 13.3958 13.2803 13.3633C13.43 13.3307 13.5505 13.2526 13.6416 13.1289C13.8499 12.862 14.0094 12.543 14.1201 12.1719C14.2308 11.7943 14.2861 11.4036 14.2861 11C14.2861 10.6029 14.2275 10.2188 14.1104 9.84766C13.9997 9.47005 13.8434 9.14453 13.6416 8.87109C13.5505 8.7474 13.43 8.67253 13.2803 8.64648C13.1305 8.61393 12.9938 8.63997 12.8701 8.72461C12.7334 8.82227 12.652 8.94922 12.626 9.10547C12.5999 9.26172 12.6423 9.42122 12.7529 9.58398C13.0199 9.94206 13.1533 10.4141 13.1533 11C13.1533 11.5469 13.0166 12.0189 12.7432 12.416C12.5283 12.7611 12.5706 13.0443 12.8701 13.2656ZM14.7354 14.5938C14.8786 14.6784 15.0218 14.7077 15.165 14.6816C15.3083 14.6491 15.4222 14.571 15.5068 14.4473C15.8389 13.9655 16.096 13.4316 16.2783 12.8457C16.4671 12.2533 16.5615 11.638 16.5615 11C16.5615 10.375 16.4704 9.76628 16.2881 9.17383C16.1123 8.58138 15.8519 8.04102 15.5068 7.55273C15.4222 7.42253 15.305 7.3444 15.1553 7.31836C15.012 7.28581 14.8721 7.31185 14.7354 7.39648C14.5986 7.48763 14.5205 7.61133 14.501 7.76758C14.4814 7.92383 14.5205 8.07682 14.6182 8.22656C15.165 9.0013 15.4385 9.92578 15.4385 11C15.4385 11.5143 15.3669 12.0124 15.2236 12.4941C15.0804 12.9759 14.8786 13.3991 14.6182 13.7637C14.5205 13.9134 14.4782 14.0697 14.4912 14.2324C14.5107 14.3887 14.5921 14.5091 14.7354 14.5938Z" fill="#44DA92"/>
</svg>
