<svg width="24" height="33" viewBox="0 0 24 33" fill="none" xmlns="http://www.w3.org/2000/svg">
<path d="M18 17.1758C18 16.9072 17.9033 16.6709 17.6992 16.4668L9.18066 8.1416C8.99805 7.94824 8.76172 7.85156 8.48242 7.85156C7.92383 7.85156 7.49414 8.27051 7.49414 8.8291C7.49414 9.1084 7.6123 9.34473 7.78418 9.52734L15.6045 17.1758L7.78418 24.8242C7.6123 25.0068 7.49414 25.2539 7.49414 25.5225C7.49414 26.0811 7.92383 26.5 8.48242 26.5C8.76172 26.5 8.99805 26.4033 9.18066 26.2207L17.6992 17.8848C17.9033 17.6914 18 17.4443 18 17.1758Z" fill="#44DA92"/>
</svg>
