<svg width="26" height="24" viewBox="0 0 26 24" fill="none" xmlns="http://www.w3.org/2000/svg">
<path id="&#244;&#128;&#135;&#191;" d="M3.91797 23.1328C3.25391 23.1328 2.68359 22.9922 2.20703 22.7109C1.73047 22.4297 1.36328 22.0469 1.10547 21.5625C0.847656 21.0859 0.71875 20.5508 0.71875 19.957C0.71875 19.3867 0.871094 18.8398 1.17578 18.3164L10.2695 2.47266C10.5664 1.94141 10.9609 1.54297 11.4531 1.27734C11.9453 1.00391 12.4609 0.867188 13 0.867188C13.5391 0.867188 14.0508 1.00391 14.5352 1.27734C15.0273 1.54297 15.4258 1.94141 15.7305 2.47266L24.8242 18.3164C24.9727 18.5742 25.0859 18.8438 25.1641 19.125C25.2422 19.4062 25.2812 19.6836 25.2812 19.957C25.2812 20.5508 25.1523 21.0859 24.8945 21.5625C24.6367 22.0469 24.2695 22.4297 23.793 22.7109C23.3164 22.9922 22.7461 23.1328 22.082 23.1328H3.91797ZM13.0117 15.293C13.6211 15.293 13.9297 14.9727 13.9375 14.332L14.1133 7.95703C14.1211 7.65234 14.0156 7.39844 13.7969 7.19531C13.5859 6.98438 13.3203 6.87891 13 6.87891C12.6719 6.87891 12.4023 6.98047 12.1914 7.18359C11.9883 7.38672 11.8906 7.64062 11.8984 7.94531L12.0508 14.332C12.0664 14.9727 12.3867 15.293 13.0117 15.293ZM13.0117 19.2188C13.3633 19.2188 13.668 19.0977 13.9258 18.8555C14.1914 18.6133 14.3242 18.3164 14.3242 17.9648C14.3242 17.6133 14.1914 17.3164 13.9258 17.0742C13.668 16.8242 13.3633 16.6992 13.0117 16.6992C12.6523 16.6992 12.3438 16.8242 12.0859 17.0742C11.8281 17.3242 11.6992 17.6211 11.6992 17.9648C11.6992 18.3164 11.8281 18.6133 12.0859 18.8555C12.3516 19.0977 12.6602 19.2188 13.0117 19.2188Z" fill="#FF3B30"/>
</svg>
